<svg width="23" height="22" viewBox="0 0 23 22" fill="none" xmlns="http://www.w3.org/2000/svg">
<path d="M20.125 1.4375C20.5062 1.4375 20.8719 1.58895 21.1415 1.85853C21.411 2.12812 21.5625 2.49375 21.5625 2.875V14.375C21.5625 14.7562 21.411 15.1219 21.1415 15.3915C20.8719 15.661 20.5062 15.8125 20.125 15.8125H6.34513C5.58269 15.8127 4.85154 16.1157 4.3125 16.6549L1.4375 19.5299V2.875C1.4375 2.49375 1.58895 2.12812 1.85853 1.85853C2.12812 1.58895 2.49375 1.4375 2.875 1.4375H20.125ZM2.875 0C2.1125 0 1.38124 0.302901 0.842068 0.842068C0.302901 1.38124 0 2.1125 0 2.875L0 21.2649C3.02089e-05 21.4072 0.0422518 21.5462 0.121321 21.6644C0.20039 21.7826 0.312753 21.8747 0.444187 21.929C0.575621 21.9834 0.720218 21.9975 0.859677 21.9696C0.999136 21.9417 1.12719 21.8731 1.22762 21.7724L5.32881 17.6712C5.59833 17.4016 5.96391 17.2501 6.34513 17.25H20.125C20.8875 17.25 21.6188 16.9471 22.1579 16.4079C22.6971 15.8688 23 15.1375 23 14.375V2.875C23 2.1125 22.6971 1.38124 22.1579 0.842068C21.6188 0.302901 20.8875 0 20.125 0L2.875 0Z" fill="white"/>
</svg>
