<svg width="26" height="24" viewBox="0 0 26 24" fill="none" xmlns="http://www.w3.org/2000/svg">
<path d="M22.75 1.5625C23.181 1.5625 23.5943 1.72712 23.899 2.02015C24.2038 2.31317 24.375 2.7106 24.375 3.125V15.625C24.375 16.0394 24.2038 16.4368 23.899 16.7299C23.5943 17.0229 23.181 17.1875 22.75 17.1875H7.17275C6.31087 17.1877 5.48435 17.517 4.875 18.1031L1.625 21.2281V3.125C1.625 2.7106 1.7962 2.31317 2.10095 2.02015C2.4057 1.72712 2.81902 1.5625 3.25 1.5625H22.75ZM3.25 0C2.38805 0 1.5614 0.32924 0.951903 0.915291C0.34241 1.50134 0 2.2962 0 3.125L0 23.1141C3.41492e-05 23.2687 0.047763 23.4198 0.137146 23.5482C0.226528 23.6767 0.353546 23.7768 0.502124 23.8359C0.650701 23.8949 0.814159 23.9103 0.971809 23.88C1.12946 23.8497 1.27421 23.7751 1.38775 23.6656L6.02388 19.2078C6.32855 18.9148 6.74181 18.7501 7.17275 18.75H22.75C23.612 18.75 24.4386 18.4208 25.0481 17.8347C25.6576 17.2487 26 16.4538 26 15.625V3.125C26 2.2962 25.6576 1.50134 25.0481 0.915291C24.4386 0.32924 23.612 0 22.75 0L3.25 0Z" fill="black"/>
</svg>
